<?xml version="1.0" encoding="utf-8"?>
<!-- Generator: Adobe Illustrator 25.2.0, SVG Export Plug-In . SVG Version: 6.00 Build 0)  -->
<svg version="1.1" id="Layer_1" xmlns="http://www.w3.org/2000/svg" xmlns:xlink="http://www.w3.org/1999/xlink" x="0px" y="0px"
	 viewBox="0 0 45.4 45.4" style="enable-background:new 0 0 45.4 45.4;" xml:space="preserve">
<style type="text/css">
	.st0{fill-rule:evenodd;clip-rule:evenodd;fill:#FFFFFF;}
	.st1{fill-rule:evenodd;clip-rule:evenodd;fill:#000101;}
	.st2{fill-rule:evenodd;clip-rule:evenodd;fill:#DF1E26;}
	.st3{fill-rule:evenodd;clip-rule:evenodd;fill:#F6D92A;}
</style>
<path class="st0" d="M23.5,42.8c10.7,0,19.4-8.7,19.4-19.4C42.9,12.7,34.2,4,23.5,4C12.8,4,4.1,12.7,4.1,23.4
	C4.1,34.1,12.8,42.8,23.5,42.8L23.5,42.8z"/>
<path class="st1" d="M8,17.9h31C36.7,11.6,30.7,7,23.5,7h-0.1C16.3,7,10.3,11.6,8,17.9L8,17.9z"/>
<path class="st2" d="M8,28.9h31c0.6-1.7,0.9-3.6,0.9-5.5c0-1.9-0.3-3.8-0.9-5.5H8c-0.6,1.7-0.9,3.6-0.9,5.5
	C7.1,25.3,7.4,27.2,8,28.9L8,28.9z"/>
<path class="st3" d="M23.2,39.8h0.6c7-0.1,13-4.7,15.2-10.9H8C10.2,35.2,16.2,39.7,23.2,39.8L23.2,39.8z"/>
</svg>
