<?xml version="1.0" encoding="utf-8"?>
<!-- Generator: Adobe Illustrator 25.2.0, SVG Export Plug-In . SVG Version: 6.00 Build 0)  -->
<svg version="1.1" id="Layer_1" xmlns="http://www.w3.org/2000/svg" xmlns:xlink="http://www.w3.org/1999/xlink" x="0px" y="0px"
	 viewBox="0 0 45.4 45.4" style="enable-background:new 0 0 45.4 45.4;" xml:space="preserve">
<style type="text/css">
	.st0{fill-rule:evenodd;clip-rule:evenodd;fill:#FFFFFF;}
	.st1{fill-rule:evenodd;clip-rule:evenodd;fill:#D61E34;}
</style>
<path class="st0" d="M23.5,42.8c10.7,0,19.4-8.7,19.4-19.4C42.9,12.7,34.2,4,23.5,4C12.8,4,4.1,12.7,4.1,23.4
	C4.1,34.1,12.8,42.8,23.5,42.8L23.5,42.8z"/>
<path class="st0" d="M7.1,23.4h32.9C39.9,14.3,32.6,7,23.5,7h0C14.4,7,7.1,14.3,7.1,23.4L7.1,23.4z"/>
<path class="st1" d="M23.1,39.8h0.7c8.9-0.2,16.1-7.5,16.1-16.4v0H7.1v0C7.1,32.3,14.2,39.6,23.1,39.8L23.1,39.8z"/>
</svg>
