<?xml version="1.0" encoding="utf-8"?>
<!-- Generator: Adobe Illustrator 25.2.0, SVG Export Plug-In . SVG Version: 6.00 Build 0)  -->
<svg version="1.1" id="Layer_1" xmlns="http://www.w3.org/2000/svg" xmlns:xlink="http://www.w3.org/1999/xlink" x="0px" y="0px"
	 viewBox="0 0 45.4 45.4" style="enable-background:new 0 0 45.4 45.4;" xml:space="preserve">
<style type="text/css">
	.st0{fill:#FFFFFF;}
	.st1{fill:#0052B4;}
	.st2{fill:#D80027;}
</style>
<ellipse class="st0" cx="22.6" cy="22.7" rx="19.5" ry="19.5"/>
<g transform="translate(0.728 0.661)">
	<path class="st1" d="M9.3,12.3c-1.2,1.6-2.2,3.6-2.7,5.6h8.2L9.3,12.3z"/>
	<path class="st1" d="M37.1,17.9c-0.6-2-1.5-4-2.7-5.6l-5.4,5.6H37.1z"/>
	<path class="st1" d="M6.6,26.2c0.6,2,1.5,4,2.7,5.6l5.5-5.6C14.8,26.2,6.6,26.2,6.6,26.2z"/>
	<path class="st1" d="M31.5,9.2C29.8,8,27.9,7,25.9,6.5v8.3L31.5,9.2z"/>
	<path class="st1" d="M12.2,34.7c1.6,1.2,3.5,2.2,5.5,2.7v-8.3L12.2,34.7z"/>
	<path class="st1" d="M17.7,6.5c-2,0.6-3.9,1.5-5.5,2.7l5.5,5.6V6.5z"/>
	<path class="st1" d="M25.9,37.5c2-0.6,3.9-1.5,5.5-2.7l-5.5-5.6V37.5z"/>
	<path class="st1" d="M28.9,26.2l5.5,5.6c1.2-1.6,2.2-3.6,2.7-5.6C37.2,26.2,28.9,26.2,28.9,26.2z"/>
</g>
<g transform="translate(0.067)">
	<path class="st2" d="M38.4,20.5H24.7V6.8c-1.4-0.2-2.7-0.2-4.2,0v13.8H6.7c-0.2,1.4-0.2,2.7,0,4.2h13.8v13.8c1.4,0.2,2.7,0.2,4.2,0
		V24.7h13.8C38.6,23.4,38.6,21.9,38.4,20.5z"/>
	<path class="st2" d="M26.8,26.8L26.8,26.8L34,34c0.3-0.3,0.7-0.7,0.9-1l-6.1-6.1L26.8,26.8L26.8,26.8z"/>
	<path class="st2" d="M18.5,26.8L18.5,26.8L11.3,34c0.3,0.3,0.7,0.7,1,0.9l6.1-6.1L18.5,26.8L18.5,26.8z"/>
	<path class="st2" d="M18.5,18.4L18.5,18.4l-7.2-7.1c-0.3,0.3-0.7,0.7-0.9,1l6.1,6.1H18.5z"/>
	<path class="st2" d="M26.8,18.4L26.8,18.4l7.2-7.2c-0.3-0.3-0.7-0.7-1-0.9l-6.1,6.1L26.8,18.4L26.8,18.4z"/>
</g>
</svg>
