<?xml version="1.0" encoding="utf-8"?>
<!-- Generator: Adobe Illustrator 25.2.0, SVG Export Plug-In . SVG Version: 6.00 Build 0)  -->
<svg version="1.1" id="Layer_1" xmlns="http://www.w3.org/2000/svg" xmlns:xlink="http://www.w3.org/1999/xlink" x="0px" y="0px"
	 viewBox="0 0 45.4 45.4" style="enable-background:new 0 0 45.4 45.4;" xml:space="preserve">
<style type="text/css">
	.st0{fill-rule:evenodd;clip-rule:evenodd;fill:#FFFFFF;}
	.st1{fill-rule:evenodd;clip-rule:evenodd;fill:#303E99;}
	.st2{fill-rule:evenodd;clip-rule:evenodd;fill:#BB1F33;}
</style>
<g>
	<path class="st0" d="M23.5,42.8c10.7,0,19.4-8.7,19.4-19.4C42.9,12.7,34.2,4,23.5,4C12.8,4,4.1,12.7,4.1,23.4
		C4.1,34.1,12.8,42.8,23.5,42.8L23.5,42.8z"/>
	<path class="st0" d="M23.2,39.8h0.6c8.9-0.2,16.1-7.5,16.1-16.4C39.9,14.3,32.6,7,23.5,7C14.4,7,7.1,14.3,7.1,23.4
		C7.1,32.4,14.3,39.7,23.2,39.8L23.2,39.8z"/>
	<path class="st1" d="M23.2,39.8h0.6c8.9-0.2,16.1-7.5,16.1-16.4c0-1.9-0.3-3.8-0.9-5.5H8c-0.6,1.7-0.9,3.6-0.9,5.5
		C7.1,32.4,14.3,39.7,23.2,39.8L23.2,39.8z"/>
	<path class="st2" d="M23.2,39.8h0.6c7-0.1,13-4.7,15.2-11H8C10.2,35.2,16.2,39.7,23.2,39.8L23.2,39.8z"/>
	<path class="st0" d="M9.4,31.8c0.2,0.1,0.5,0.2,0.7,0.3c0.6-0.2,1.2-0.6,1.7-0.9c2.2-1.3,3.9-3.3,4.7-5.8c1-3.1,0.6-6.4,0.4-9.6
		c0-0.4,0-1.2-0.6-1.2H9.6c-1.6,2.5-2.5,5.5-2.5,8.7C7.1,26.5,7.9,29.3,9.4,31.8L9.4,31.8z"/>
	<path class="st2" d="M10.1,15.2v16.4c7.6-3.7,6.8-9.8,6.3-16.4H10.1L10.1,15.2z M8.9,30.9c-1.2-2.3-1.8-4.8-1.8-7.6
		c0-3,0.8-5.8,2.2-8.2h0.9v16.4C9.7,31.4,9.3,31.2,8.9,30.9L8.9,30.9z"/>
	<path class="st0" d="M11,19.7c0.8,0,1.6,0.1,2.4,0.3c-0.2-0.8-0.2-1.2,0-2c-0.8,0.2-1.6,0.3-2.4,0.3H9.2c-0.4,0-0.9,0-1.3-0.1
		c-0.2,0.5-0.3,1.1-0.5,1.7c0.6-0.1,1.2-0.2,1.8-0.2H11L11,19.7z"/>
	<path class="st0" d="M11.7,22.7c0.8,0,1.6,0.1,2.4,0.3c-0.2-0.8-0.2-1.2,0-2c-0.8,0.2-1.6,0.3-2.4,0.3H8.5c-0.4,0-0.9,0-1.3-0.1
		c-0.1,0.5-0.1,1.1-0.1,1.6c0.5-0.1,1-0.1,1.5-0.1H11.7L11.7,22.7z"/>
	<path class="st0" d="M9.1,15.8c0.2,0.8,0.3,1.6,0.3,2.4v10.2h1.4V18.2c0-0.8,0.1-1.6,0.3-2.4C10.4,16,9.9,16,9.1,15.8L9.1,15.8z"/>
	<path class="st1" d="M8,28.8c0.4-0.3,0.6-0.8,0.6-1.3c0-0.8-0.6-1.5-1.3-1.6C7.4,26.9,7.7,27.9,8,28.8L8,28.8z"/>
	<path class="st1" d="M10.1,24.9C9,24.9,8,25.9,8,27c0,1.1,0.9,2.1,2.1,2.1c1.1,0,2.1-0.9,2.1-2.1C12.2,25.9,11.3,24.9,10.1,24.9
		L10.1,24.9z"/>
	<path class="st1" d="M13.3,25.9c-0.9,0-1.6,0.7-1.6,1.6c0,0.9,0.7,1.6,1.6,1.6c0.2,0,0.3,0,0.5-0.1c0.4-0.4,0.8-0.9,1.1-1.3
		c0-0.1,0-0.1,0-0.2C14.9,26.6,14.2,25.9,13.3,25.9L13.3,25.9z"/>
	<path class="st1" d="M8.9,31c0.4,0.2,0.8,0.4,1.2,0.6c2.1-1,3.5-2.2,4.5-3.5H7.7C8,29.1,8.4,30,8.9,31L8.9,31z"/>
</g>
</svg>
