<?xml version="1.0" encoding="utf-8"?>
<!-- Generator: Adobe Illustrator 25.2.0, SVG Export Plug-In . SVG Version: 6.00 Build 0)  -->
<svg version="1.1" id="Layer_1" xmlns="http://www.w3.org/2000/svg" xmlns:xlink="http://www.w3.org/1999/xlink" x="0px" y="0px"
	 viewBox="0 0 45.4 45.4" style="enable-background:new 0 0 45.4 45.4;" xml:space="preserve">
<style type="text/css">
	.st0{fill-rule:evenodd;clip-rule:evenodd;fill:#FFFFFF;}
	.st1{fill-rule:evenodd;clip-rule:evenodd;fill:#3D9348;}
	.st2{fill-rule:evenodd;clip-rule:evenodd;fill:#F4F4F4;}
	.st3{fill-rule:evenodd;clip-rule:evenodd;fill:#D61E34;}
</style>
<path class="st0" d="M23.5,42.8c10.7,0,19.4-8.7,19.4-19.4C42.9,12.7,34.2,4,23.5,4C12.8,4,4.1,12.7,4.1,23.4
	C4.1,34.1,12.8,42.8,23.5,42.8L23.5,42.8z"/>
<path class="st1" d="M14.1,36.9v-27c-4.3,3-7,7.9-7,13.5C7.1,29,9.9,33.9,14.1,36.9L14.1,36.9z"/>
<path class="st2" d="M23.4,39.8h0.2c3.4,0,6.6-1.1,9.3-2.9v-27C30.2,8.1,27,7,23.6,7h-0.2c-3.5,0-6.7,1.1-9.3,2.9v27
	C16.7,38.7,19.9,39.8,23.4,39.8L23.4,39.8z"/>
<path class="st3" d="M32.9,9.9v27c4.3-3,7-7.9,7-13.5C39.9,17.8,37.1,12.9,32.9,9.9L32.9,9.9z"/>
</svg>
