<svg width="6013" height="1329" viewBox="0 0 6013 1329" fill="none" xmlns="http://www.w3.org/2000/svg"><path d="M1398.72 1125.62C1339.97 1125.62 1292.18 1109.56 1255.36 1077.44C1219.33 1044.54 1201.31 1002.63 1201.31 951.717C1201.31 900.793 1217.76 859.667 1250.66 828.332C1284.35 796.998 1336.05 781.33 1405.77 781.33C1428.49 781.33 1452.38 783.681 1477.45 788.381C1502.51 792.298 1522.88 798.564 1538.55 807.182V650.9C1538.55 617.999 1529.93 595.282 1512.7 582.748C1496.25 569.431 1475.88 562.772 1451.59 562.772C1425.74 562.772 1404.59 569.039 1388.14 581.573C1403.81 587.056 1415.17 595.673 1422.22 607.424C1429.27 618.391 1432.79 630.533 1432.79 643.85C1432.79 669.701 1423.39 690.46 1404.59 706.128C1386.58 721.011 1364.25 728.453 1337.62 728.453C1307.85 728.453 1283.95 719.836 1265.94 702.602C1247.92 684.585 1238.91 662.259 1238.91 635.625C1238.91 608.99 1247.92 583.923 1265.94 560.422C1283.95 536.138 1311.76 516.162 1349.37 500.495C1387.75 484.827 1437.1 476.994 1497.42 476.994C1654.88 476.994 1733.61 539.271 1733.61 663.826V975.217C1733.61 1012.82 1751.62 1035.54 1787.66 1043.37V1080.97C1777.47 1095.85 1760.24 1107.21 1735.96 1115.05C1711.67 1122.1 1688.17 1125.62 1665.45 1125.62C1612.18 1125.62 1574.58 1107.21 1552.65 1070.39C1536.98 1084.5 1516.22 1097.42 1490.37 1109.17C1464.52 1120.14 1433.97 1125.62 1398.72 1125.62ZM1475.1 1030.44C1486.06 1030.44 1497.42 1028.88 1509.17 1025.74C1520.92 1021.83 1530.71 1017.13 1538.55 1011.64V897.66C1530.71 892.176 1520.53 887.476 1508 883.559C1496.25 879.643 1484.5 877.684 1472.75 877.684C1452.38 877.684 1434.75 884.343 1419.87 897.66C1404.98 910.194 1397.54 930.17 1397.54 957.587C1397.54 978.737 1404.59 996.367 1418.69 1010.47C1432.79 1023.78 1451.59 1030.44 1475.1 1030.44ZM1863.1 1117.4C1854.48 1108 1847.82 1098.2 1843.12 1088.02C1838.42 1077.84 1836.07 1066.48 1836.07 1053.94C1858.79 1053.94 1875.24 1049.24 1885.43 1039.84C1895.61 1029.66 1900.7 1012.82 1900.7 989.317V365.364C1900.7 347.347 1895.61 333.246 1885.43 323.063C1875.24 312.096 1853.7 306.612 1820.8 306.612V259.61C1840.38 248.643 1863.1 239.243 1888.95 231.409C1915.58 222.792 1941.83 216.134 1967.68 211.433C1993.53 205.95 2015.07 203.208 2032.31 203.208C2050.32 203.208 2063.25 207.125 2071.08 214.959C2079.7 222.792 2084.01 236.501 2084.01 256.085V989.317C2084.01 1013.6 2088.71 1030.44 2098.11 1039.84C2108.29 1049.24 2125.13 1053.94 2148.64 1053.94C2148.64 1066.48 2145.89 1077.84 2140.41 1088.02C2135.71 1098.2 2129.05 1108 2120.43 1117.4H1863.1ZM2411.53 1125.62C2356.7 1125.62 2314 1108.78 2283.45 1075.09C2252.9 1041.41 2237.63 995.977 2237.63 938.787V615.649C2237.63 602.332 2232.53 592.931 2222.35 587.448C2212.17 581.964 2198.07 579.223 2180.05 579.223V527.521C2190.23 518.904 2211.38 509.895 2243.5 500.495C2276.4 490.311 2313.22 485.219 2353.96 485.219C2384.51 485.219 2404.48 488.744 2413.88 495.794C2424.07 502.845 2429.16 520.079 2429.16 547.496V942.307C2429.16 965.817 2433.08 983.827 2440.91 996.367C2448.74 1008.9 2462.45 1015.17 2482.04 1015.17C2498.49 1015.17 2514.15 1010.08 2529.04 999.887C2544.71 989.707 2557.63 977.957 2567.81 964.637V615.649C2567.81 602.332 2561.94 592.931 2550.19 587.448C2538.44 581.964 2522.38 579.223 2502.01 579.223V527.521C2512.98 518.904 2534.52 509.895 2566.64 500.495C2598.76 490.311 2636.75 485.219 2680.62 485.219C2711.17 485.219 2731.93 488.744 2742.9 495.794C2753.86 502.845 2759.35 520.079 2759.35 547.496V979.917C2759.35 998.717 2764.05 1014.38 2773.45 1026.92C2783.63 1039.45 2797.73 1046.5 2815.75 1048.07V1080.97C2803.22 1095.85 2783.24 1107.21 2755.82 1115.05C2729.19 1122.1 2703.34 1125.62 2678.27 1125.62C2652.42 1125.62 2629.7 1118.96 2610.12 1105.65C2591.32 1091.55 2578.78 1071.57 2572.51 1045.72C2534.13 1098.99 2480.47 1125.62 2411.53 1125.62ZM2880.5 1117.4L2847.59 1072.74L3139.01 635.625L3195.41 573.347H3096.7C3059.89 573.347 3033.25 583.531 3016.8 603.899C3000.35 624.266 2992.13 657.951 2992.13 704.953H2898.12C2887.94 676.751 2882.06 644.242 2880.5 607.424C2879.71 570.606 2878.93 533.004 2878.15 494.619H3377.54L3412.79 542.796L3143.71 963.467L3073.2 1037.49H3150.76C3190.71 1037.49 3221.65 1031.23 3243.59 1018.69C3265.52 1006.16 3281.97 988.917 3292.94 966.987C3303.9 944.267 3313.3 917.636 3321.14 887.085H3409.27V928.211C3409.27 958.767 3407.7 991.267 3404.57 1025.74C3401.43 1059.43 3392.82 1089.98 3378.72 1117.4H2880.5ZM3657.01 1125.62C3598.26 1125.62 3550.47 1109.56 3513.65 1077.44C3477.62 1044.54 3459.6 1002.63 3459.6 951.717C3459.6 900.793 3476.05 859.667 3508.95 828.332C3542.64 796.998 3594.34 781.33 3664.06 781.33C3686.78 781.33 3710.67 783.681 3735.74 788.381C3760.8 792.298 3781.17 798.564 3796.84 807.182V650.9C3796.84 617.999 3788.22 595.282 3770.99 582.748C3754.54 569.431 3734.17 562.772 3709.89 562.772C3684.03 562.772 3662.88 569.039 3646.43 581.573C3662.1 587.056 3673.46 595.673 3680.51 607.424C3687.56 618.391 3691.08 630.533 3691.08 643.85C3691.08 669.701 3681.68 690.46 3662.88 706.128C3644.87 721.011 3622.54 728.453 3595.91 728.453C3566.14 728.453 3542.25 719.836 3524.23 702.602C3506.21 684.585 3497.2 662.259 3497.2 635.625C3497.2 608.99 3506.21 583.923 3524.23 560.422C3542.25 536.138 3570.05 516.162 3607.66 500.495C3646.04 484.827 3695.39 476.994 3755.71 476.994C3913.17 476.994 3991.9 539.271 3991.9 663.826V975.217C3991.9 1012.82 4009.91 1035.54 4045.95 1043.37V1080.97C4035.76 1095.85 4018.53 1107.21 3994.25 1115.05C3969.96 1122.1 3946.46 1125.62 3923.74 1125.62C3870.47 1125.62 3832.87 1107.21 3810.94 1070.39C3795.27 1084.5 3774.51 1097.42 3748.66 1109.17C3722.81 1120.14 3692.26 1125.62 3657.01 1125.62ZM3733.39 1030.44C3744.35 1030.44 3755.71 1028.88 3767.46 1025.74C3779.21 1021.83 3789 1017.13 3796.84 1011.64V897.66C3789 892.176 3778.82 887.476 3766.29 883.559C3754.54 879.643 3742.79 877.684 3731.04 877.684C3710.67 877.684 3693.04 884.343 3678.16 897.66C3663.28 910.194 3655.83 930.17 3655.83 957.587C3655.83 978.737 3662.88 996.367 3676.98 1010.47C3691.08 1023.78 3709.89 1030.44 3733.39 1030.44ZM4327.05 1125.62C4294.15 1125.62 4263.99 1119.75 4236.57 1108C4209.15 1095.46 4186.83 1074.31 4169.59 1044.54C4153.14 1014.78 4144.92 974.037 4144.92 922.336V599.198H4070.89V527.521C4092.04 524.387 4112.02 511.07 4130.82 487.569C4149.62 464.068 4165.68 435.084 4178.99 400.616C4193.1 366.148 4202.1 331.68 4206.02 297.212C4220.12 294.862 4233.05 293.687 4244.8 293.687C4276.13 293.687 4297.67 302.695 4309.42 320.713C4321.96 338.73 4328.23 355.572 4328.23 371.24V494.619H4464.53C4464.53 513.42 4463.36 532.221 4461.01 551.022C4459.44 569.039 4454.35 585.098 4445.73 599.198H4330.58V930.561C4330.58 955.627 4335.67 972.467 4345.85 981.087C4356.03 988.917 4368.96 992.837 4384.63 992.837C4400.3 992.837 4415.96 988.917 4431.63 981.087C4448.08 972.467 4461.01 962.677 4470.41 951.717C4479.02 958.767 4484.9 969.337 4488.03 983.437C4491.17 996.757 4492.73 1006.94 4492.73 1013.99C4492.73 1031.23 4486.86 1048.46 4475.11 1065.69C4463.36 1082.93 4444.95 1097.42 4419.88 1109.17C4395.59 1120.14 4364.65 1125.62 4327.05 1125.62ZM4805.6 1132.67C4749.98 1132.67 4700.63 1120.92 4657.54 1097.42C4614.46 1073.14 4580.77 1037.89 4556.49 991.667C4532.99 944.657 4521.24 886.693 4521.24 817.757C4521.24 744.121 4533.77 682.235 4558.84 632.1C4583.91 581.964 4618.76 543.971 4663.42 518.12C4708.07 492.269 4759.38 479.344 4817.35 479.344C4873.75 479.344 4923.1 491.486 4965.4 515.77C5008.49 540.054 5041.78 576.089 5065.28 623.874C5089.57 670.876 5101.71 729.237 5101.71 798.956C5101.71 871.809 5089.17 933.303 5064.11 983.437C5039.04 1032.79 5004.18 1070 4959.53 1095.07C4914.88 1120.14 4863.57 1132.67 4805.6 1132.67ZM4815 1048.07C4831.45 1048.07 4845.55 1042.19 4857.3 1030.44C4869.83 1018.69 4879.23 997.147 4885.5 965.817C4892.55 933.695 4896.08 887.476 4896.08 827.157C4896.08 753.521 4892.55 697.902 4885.5 660.301C4878.45 621.916 4868.27 596.065 4854.95 582.748C4841.63 569.431 4825.96 562.772 4807.95 562.772C4791.5 562.772 4777 568.647 4764.47 580.398C4751.94 592.148 4742.14 614.082 4735.09 646.2C4728.83 678.318 4725.69 724.928 4725.69 786.031C4725.69 858.883 4729.22 914.111 4736.27 951.717C4744.1 989.317 4754.68 1014.78 4768 1028.09C4781.31 1041.41 4796.98 1048.07 4815 1048.07ZM5194.25 1117.4C5185.64 1108.78 5178.98 1099.38 5174.28 1089.2C5169.58 1079.01 5167.23 1067.26 5167.23 1053.94C5189.94 1053.94 5206 1049.24 5215.4 1039.84C5225.59 1029.66 5230.68 1012.82 5230.68 989.317V649.725C5230.68 629.358 5225.2 614.866 5214.23 606.249C5203.26 596.848 5182.89 592.148 5153.13 592.148V539.271C5171.93 528.304 5194.25 518.904 5220.1 511.07C5245.95 502.453 5271.41 495.794 5296.48 491.094C5321.55 485.611 5341.13 482.869 5355.23 482.869C5373.25 482.869 5386.18 489.136 5394.01 501.67C5402.63 514.203 5406.94 541.23 5406.94 582.748C5415.55 566.297 5428.09 550.238 5444.54 534.571C5461.77 518.12 5480.96 504.803 5502.11 494.619C5523.27 484.436 5545.2 479.344 5567.92 479.344C5604.74 479.344 5630.98 488.744 5646.65 507.545C5662.31 526.346 5670.15 550.63 5670.15 580.398C5670.15 614.082 5661.53 641.5 5644.29 662.651C5627.06 683.802 5603.17 694.377 5572.62 694.377C5545.98 694.377 5524.83 686.935 5509.16 672.051C5493.5 656.384 5485.66 638.758 5485.66 619.174C5485.66 606.64 5486.84 596.848 5489.19 589.798C5476.66 592.932 5464.51 597.24 5452.76 602.724C5441.01 607.424 5429.26 615.257 5417.51 626.224V978.737C5417.51 996.757 5420.25 1011.25 5425.74 1022.22C5431.22 1033.18 5441.8 1041.41 5457.46 1046.89C5473.91 1051.59 5498.2 1053.94 5530.32 1053.94C5530.32 1067.26 5528.75 1079.01 5525.62 1089.2C5522.48 1099.38 5516.61 1108.78 5507.99 1117.4H5194.25Z" fill="#DDDDDD"/><path d="M292.299 1109.37C299.616 1098.78 305.57 1090.14 311.488 1081.5C331.216 1052.77 342.012 1021.49 341.94 986.117C341.582 769.8 341.366 553.48 342.012 337.123C342.156 295.23 330.785 258.536 304.925 225.968C301.087 221.054 297.823 215.602 292.048 207.173C302.091 206.707 308.296 206.133 314.501 206.133C381.431 206.097 448.361 206.205 515.291 206.205C560.556 206.205 586.525 230.846 586.955 276.722C587.672 349.032 587.242 421.342 587.278 493.652C587.278 514.563 586.776 535.51 587.421 556.385C588.21 581.457 608.081 594.728 629.028 581.349C648.254 569.046 664.932 552.009 680.75 535.223C743.555 468.472 832.58 451.973 908.835 492.073C1012.17 546.414 1020.56 696.234 951.195 760.761C926.626 783.609 898.254 794.477 864.502 788.631C862.422 788.272 860.557 786.73 854.495 783.609C864.072 779.054 870.671 776.184 877.056 772.849C919.739 750.646 934.66 713.487 934.122 667.683C933.62 621.952 916.044 585.689 872.967 567.253C836.095 551.471 798.756 557.03 764.861 577.439C747.142 588.092 729.889 600.969 715.829 616.033C680.427 653.982 646.496 693.401 612.852 732.963C594.918 754.09 586.955 779.305 587.099 807.39C587.457 883.896 587.098 960.367 587.134 1036.88C587.134 1061.66 578.347 1082.82 559.014 1098.03C550.585 1104.67 538.999 1110.94 528.777 1111.09C452.916 1112.16 376.983 1111.63 301.087 1111.55C299.473 1111.52 297.751 1110.73 292.299 1109.37Z" fill="#DDDDDD"/><path d="M1144.81 1111.7C1115.8 1111.7 1090.8 1111.7 1065.76 1111.7C1014.97 1111.7 964.038 1109.62 913.392 1112.38C876.663 1114.39 845.099 1078.06 847.108 1045.56C848.722 1019.38 847.574 992.977 847.215 966.687C846.821 938.563 835.486 917.293 811.311 900.794C788.428 885.191 765.221 868.011 747.681 846.92C700.336 789.962 707.975 699.574 762.459 652.515C787.782 630.636 817.337 621.059 850.192 635.801C876.914 647.781 885.989 679.129 868.88 698.498C867.337 698.068 865.4 697.96 864.037 697.028C827.093 671.669 795.565 687.558 791.835 733.469C785.988 805.349 850.049 850.256 922.897 824.395C984.518 802.515 1014.22 753.484 1025.87 692.974C1039.4 622.924 1027.35 556.245 988.177 495.987C957.904 449.43 916.799 417.866 859.446 412.128C849.439 411.123 844.561 406.532 844.812 395.951C845.924 351.762 845.924 307.5 847.789 263.347C848.973 234.868 873.184 207.715 901.268 207.177C980.035 205.671 1058.84 206.639 1141.55 206.639C1137.78 213.813 1135.95 218.906 1132.83 222.959C1109.55 253.16 1096.57 286.553 1096.64 325.363C1097.04 541.109 1097.32 756.891 1096.53 972.637C1096.36 1018.05 1106.36 1058.76 1134.81 1094.48C1137.96 1098.47 1140.04 1103.38 1144.81 1111.7Z" fill="#DDDDDD"/></svg>